<svg width="183" height="110" viewBox="0 0 183 110" fill="none" xmlns="http://www.w3.org/2000/svg">
<path d="M8.62959 23.438H20.6929L43.9162 60H31.7997L8.62959 23.438ZM28.0797 30.8779L32.1185 23.438H43.7567L33.6597 39.6996L28.0797 30.8779ZM18.6204 43.4196L24.1472 52.1881L20.0552 60H8.41702L18.6204 43.4196Z" fill="#290880"/>
<path d="M181.375 56.5668H178.035V53.6224H177.865C177.638 54.0942 177.261 54.5993 176.733 55.1371C176.205 55.6749 175.501 56.1327 174.624 56.5101C173.746 56.8876 172.675 57.0765 171.411 57.0765C170.033 57.0765 168.783 56.8162 167.66 56.2972C166.537 55.7688 165.645 55.0096 164.985 54.0189C164.324 53.0188 163.994 51.8111 163.994 50.3959C163.994 49.1503 164.239 48.1403 164.73 47.3666C165.221 46.5834 165.877 45.9702 166.698 45.5267C167.519 45.0834 168.424 44.7525 169.415 44.5355C170.415 44.3091 171.421 44.1305 172.43 43.9984C173.751 43.8286 174.822 43.7005 175.643 43.6156C176.473 43.5212 177.077 43.3658 177.455 43.1488C177.596 43.0695 177.711 42.9682 177.8 42.8461H181.375V56.5668ZM107.138 42.8461C107.249 43.6357 107.308 44.4912 107.308 45.4135V46.8285H91.523C91.5709 48.2749 91.8486 49.5159 92.3619 50.5511C92.9375 51.6834 93.7354 52.5465 94.7545 53.141C95.7735 53.726 96.9579 54.0189 98.3072 54.0189C99.1846 54.0189 99.9775 53.8961 100.685 53.6508C101.402 53.396 102.02 53.0188 102.539 52.5189C103.058 52.0095 103.459 51.3771 103.742 50.6224L106.969 51.5277C106.63 52.6223 106.058 53.5851 105.256 54.4154C104.454 55.2363 103.463 55.8779 102.284 56.3402C101.104 56.793 99.7789 57.0199 98.3072 57.0199C96.2125 57.0199 94.4054 56.5569 92.8863 55.6322C91.3766 54.6981 90.2111 53.3961 89.3902 51.726C88.5787 50.0464 88.1724 48.0934 88.1724 45.8666C88.1724 44.799 88.2672 43.7922 88.4537 42.8461H91.6802C91.6046 43.2039 91.5543 43.5688 91.5308 43.9418H103.912C103.912 43.5639 103.885 43.1988 103.838 42.8461H107.138ZM62.1334 56.5668H58.7935V52.8871H58.567C58.0574 53.991 57.2646 54.9298 56.189 55.7035C55.1134 56.4677 53.7546 56.8499 52.1129 56.85C50.7543 56.85 49.5465 56.5526 48.4898 55.9584C47.4331 55.3545 46.6025 54.4483 45.9986 53.2406C45.3948 52.0235 45.0924 50.4902 45.0923 48.641V42.8461H48.4332V48.4144C48.4332 49.9995 48.8763 51.2639 49.7632 52.2074C50.6596 53.1508 51.8012 53.6224 53.188 53.6224C54.0184 53.6224 54.8636 53.4103 55.7222 52.9857C56.5902 52.5611 57.317 51.91 57.9019 51.0326C58.4963 50.1551 58.7935 49.0368 58.7935 47.6781V42.8461H62.1334V56.5668ZM140.517 50.3392C140.517 51.2827 140.654 51.9905 140.927 52.4623C141.21 52.9244 141.569 53.2354 142.003 53.3959C142.446 53.5468 142.913 53.6224 143.404 53.6224C143.772 53.6224 144.074 53.6035 144.31 53.5658L144.877 53.4525L145.555 56.4535C145.329 56.5384 145.013 56.6235 144.607 56.7084C144.201 56.8027 143.687 56.85 143.064 56.85C142.121 56.8499 141.196 56.6471 140.291 56.2416C139.394 55.8359 138.649 55.2173 138.054 54.3871C137.469 53.5567 137.176 52.5089 137.176 51.2445V42.8461H140.517V50.3392ZM72.2711 53.226V53.4525H84.6695V56.5668H67.6285V54.0189L76.3267 42.8461H80.1871L72.2711 53.226ZM115.754 42.8461C115.74 43.0546 115.73 43.2687 115.73 43.4886V56.5668H112.39V42.8461H115.754ZM129.601 56.5668H126.26V42.9789C126.26 42.9343 126.259 42.8901 126.258 42.8461H129.601V56.5668ZM153.524 56.5668H150.184V42.8461H153.524V56.5668ZM178.035 45.64C177.893 45.8099 177.581 45.9653 177.1 46.1068C176.628 46.2389 176.081 46.3575 175.459 46.4613C174.845 46.5557 174.246 46.6397 173.661 46.7152C173.086 46.7812 172.619 46.838 172.26 46.8851C171.392 46.9984 170.581 47.1831 169.826 47.4379C169.08 47.6832 168.477 48.0559 168.014 48.556C167.561 49.0467 167.335 49.7166 167.335 50.5658C167.335 51.7262 167.764 52.6032 168.623 53.1976C169.491 53.7827 170.59 54.0756 171.92 54.0756C173.241 54.0755 174.355 53.8161 175.26 53.2972C176.176 52.7783 176.864 52.1083 177.327 51.2875C177.798 50.4667 178.035 49.6033 178.035 48.6976V45.64ZM48.4332 39.9896H45.0923V34.8265H48.4332V39.9896ZM62.1334 39.9896H58.7935V34.8265H62.1334V39.9896ZM84.273 37.4877L82.3648 39.9896H78.5504L79.9703 38.1664V37.9408H68.025V34.8265H84.273V37.4877ZM97.9673 34.5433C99.0996 34.5434 100.218 34.7323 101.322 35.1097C102.426 35.4872 103.431 36.1004 104.336 36.9496C105.176 37.7276 105.854 38.7418 106.378 39.9896H102.786C102.345 39.337 101.787 38.8001 101.109 38.3793C100.222 37.8227 99.175 37.5443 97.9673 37.5443C96.6369 37.5443 95.4851 37.874 94.5132 38.5345C93.9113 38.9418 93.3968 39.4273 92.9683 39.9896H89.3853C89.387 39.9861 89.3885 39.9824 89.3902 39.9789C90.2111 38.271 91.3525 36.9397 92.815 35.9867C94.287 35.0243 96.0047 34.5433 97.9673 34.5433ZM122.241 34.5433C123.713 34.5433 125.001 34.8457 126.105 35.4496C127.209 36.044 128.067 36.9496 128.68 38.1664C128.956 38.7091 129.169 39.3173 129.321 39.9896H125.63C125.44 39.619 125.207 39.2849 124.93 38.9877C124.043 38.0252 122.825 37.5443 121.278 37.5443C120.212 37.5444 119.259 37.7754 118.419 38.2377C117.676 38.6514 117.074 39.2359 116.611 39.9896H112.39V34.8265H115.617V38.223H115.9C116.409 37.1192 117.183 36.2327 118.221 35.5629C119.259 34.8835 120.599 34.5433 122.241 34.5433ZM140.517 34.8265H145.159V37.6576H140.517V39.9896H137.176V37.6576H133.893V34.8265H137.176V29.6176H140.517V34.8265ZM160.218 34.5013C160.586 34.5108 160.865 34.5245 161.053 34.5433V37.9408C160.94 37.9125 160.68 37.8694 160.275 37.8129C159.879 37.7469 159.459 37.7142 159.015 37.7142C157.959 37.7143 157.015 37.9359 156.185 38.3793C155.437 38.7746 154.833 39.3124 154.367 39.9896H150.184V34.8265H153.411V38.1097H153.637C154.034 37.0343 154.751 36.1614 155.789 35.4916C156.826 34.8217 157.996 34.4867 159.298 34.4867C159.544 34.4867 159.85 34.4919 160.218 34.5013ZM173.336 34.5433C174.034 34.5433 174.836 34.6284 175.742 34.7982C176.657 34.9586 177.539 35.2936 178.388 35.8031C179.247 36.3126 179.96 37.0814 180.526 38.1097C180.819 38.6425 181.036 39.2695 181.177 39.9896H177.727C177.536 39.4698 177.258 39.022 176.888 38.6478C176.133 37.8741 174.987 37.4877 173.449 37.4877C171.854 37.4877 170.604 37.8363 169.698 38.5345C169.096 38.9982 168.616 39.4844 168.252 39.9896H165.599L164.617 39.639C165.183 38.318 165.938 37.2891 166.881 36.5531C167.834 35.8077 168.873 35.289 169.996 34.9965C171.128 34.6946 172.241 34.5433 173.336 34.5433Z" fill="#290880"/>
<g filter="url(#filter0_i_18_180)">
<path d="M30.302 82.1066V71.9431H26.6983V70.681H35.3506V71.9431H31.7302V82.1066H30.302ZM42.7237 82.2395C42.0373 82.2395 41.4615 82.1952 40.9965 82.1066C40.5426 82.0181 40.1773 81.8741 39.9005 81.6748C39.6237 81.4645 39.4133 81.1932 39.2694 80.8611C39.1255 80.5179 39.0314 80.1027 38.9871 79.6156C38.9428 79.1284 38.9207 78.5527 38.9207 77.8884C38.9207 77.1024 38.9539 76.4326 39.0203 75.879C39.0867 75.3144 39.2362 74.8604 39.4687 74.5172C39.7123 74.1629 40.0887 73.9083 40.598 73.7533C41.1073 73.5872 41.7937 73.5042 42.6572 73.5042C43.3105 73.5042 43.8419 73.554 44.2515 73.6537C44.6722 73.7533 45.0044 73.9083 45.2479 74.1187C45.4915 74.329 45.6687 74.6113 45.7794 74.9656C45.9012 75.3088 45.9787 75.724 46.0119 76.2111C46.0451 76.6872 46.0617 77.2408 46.0617 77.8718V78.3202H40.2658C40.2658 78.8959 40.2935 79.3665 40.3489 79.7318C40.4042 80.0972 40.5149 80.3795 40.681 80.5788C40.8582 80.7781 41.1294 80.9165 41.4948 80.994C41.8712 81.0715 42.3805 81.1102 43.0226 81.1102C43.2883 81.1102 43.5817 81.1047 43.9028 81.0936C44.2238 81.0715 44.5449 81.0438 44.866 81.0106C45.1871 80.9774 45.4749 80.9441 45.7295 80.9109V82.007C45.497 82.0513 45.2092 82.09 44.866 82.1232C44.5338 82.1564 44.1796 82.1841 43.8031 82.2063C43.4378 82.2284 43.078 82.2395 42.7237 82.2395ZM44.7497 77.6393V77.191C44.7497 76.6152 44.7165 76.1613 44.6501 75.8292C44.5837 75.486 44.4674 75.2313 44.3013 75.0653C44.1463 74.8881 43.9305 74.7719 43.6537 74.7165C43.3769 74.6612 43.0337 74.6335 42.624 74.6335C42.0926 74.6335 41.6719 74.6722 41.3619 74.7497C41.0519 74.8162 40.8194 74.9435 40.6644 75.1317C40.5094 75.3199 40.4042 75.5911 40.3489 75.9454C40.2935 76.2997 40.2658 76.7702 40.2658 77.357H45.0653L44.7497 77.6393ZM54.9563 82.2395C54.3142 82.2395 53.7827 82.1841 53.362 82.0734C52.9524 81.9627 52.6202 81.7966 52.3656 81.5752C52.122 81.3538 51.9394 81.0715 51.8176 80.7282C51.6958 80.385 51.6128 79.9754 51.5685 79.4993C51.5353 79.0233 51.5186 78.4808 51.5186 77.8718C51.5186 77.2408 51.5408 76.6872 51.5851 76.2111C51.6404 75.7351 51.7345 75.3254 51.8674 74.9822C52.0113 74.6279 52.2051 74.3456 52.4486 74.1353C52.7033 73.9249 53.0299 73.7699 53.4285 73.6703C53.827 73.5596 54.3197 73.5042 54.9065 73.5042C55.294 73.5042 55.6981 73.5263 56.1188 73.5706C56.5506 73.6038 56.9049 73.6537 57.1816 73.7201V74.8162C56.927 74.7719 56.6115 74.7331 56.235 74.6999C55.8697 74.6667 55.5375 74.6501 55.2386 74.6501C54.7183 74.6501 54.2976 74.6944 53.9765 74.7829C53.6665 74.8715 53.4285 75.032 53.2624 75.2645C53.1074 75.497 53.0022 75.8236 52.9468 76.2444C52.8915 76.6651 52.8638 77.2076 52.8638 77.8718C52.8638 78.5472 52.8915 79.1008 52.9468 79.5325C53.0022 79.9533 53.1129 80.2799 53.279 80.5124C53.4561 80.7338 53.6997 80.8888 54.0097 80.9774C54.3308 81.0549 54.7515 81.0936 55.2718 81.0936C55.5818 81.0936 55.9195 81.077 56.2849 81.0438C56.6502 81.0106 56.9768 80.9718 57.2647 80.9275V82.0236C56.9879 82.079 56.6336 82.1288 56.2018 82.1731C55.77 82.2173 55.3549 82.2395 54.9563 82.2395ZM62.8274 82.1066V69.7676H64.1891V74.7497H64.2722C64.3829 74.5172 64.5434 74.3069 64.7538 74.1187C64.9641 73.9304 65.252 73.7865 65.6174 73.6869C65.9827 73.5762 66.4477 73.5208 67.0123 73.5208C67.6323 73.5208 68.1305 73.5872 68.507 73.7201C68.8945 73.8419 69.1879 74.0356 69.3871 74.3013C69.5975 74.567 69.7359 74.9103 69.8023 75.331C69.8687 75.7406 69.902 76.2333 69.902 76.809V82.1066H68.5568V77.274C68.5568 76.6983 68.5291 76.2444 68.4738 75.9122C68.4295 75.569 68.3354 75.3144 68.1914 75.1483C68.0475 74.9711 67.8372 74.8549 67.5604 74.7995C67.2836 74.7442 66.9182 74.7165 66.4643 74.7165C65.9218 74.7165 65.4956 74.7885 65.1856 74.9324C64.8756 75.0653 64.6486 75.2645 64.5047 75.5303C64.3608 75.7849 64.2722 76.1004 64.239 76.4769C64.2058 76.8422 64.1891 77.2629 64.1891 77.739V82.1066H62.8274ZM76.0903 82.1066V73.6371H77.3192L77.369 74.8494H77.4687C77.5904 74.5837 77.7565 74.3512 77.9669 74.1519C78.1883 73.9526 78.4817 73.7976 78.847 73.6869C79.2235 73.5651 79.6995 73.5042 80.2752 73.5042C80.9063 73.5042 81.4101 73.5706 81.7865 73.7035C82.1629 73.8363 82.4508 74.0356 82.6501 74.3013C82.8604 74.567 82.9988 74.9103 83.0652 75.331C83.1317 75.7406 83.1649 76.2333 83.1649 76.809V82.1066H81.8197V77.274C81.8197 76.6983 81.792 76.2444 81.7367 75.9122C81.6924 75.569 81.5983 75.3144 81.4543 75.1483C81.3104 74.9711 81.1001 74.8549 80.8233 74.7995C80.5465 74.7442 80.1811 74.7165 79.7272 74.7165C79.1847 74.7165 78.7585 74.7885 78.4485 74.9324C78.1385 75.0653 77.9115 75.2645 77.7676 75.5303C77.6237 75.7849 77.5351 76.1004 77.5019 76.4769C77.4687 76.8422 77.4521 77.2629 77.4521 77.739V82.1066H76.0903ZM92.7078 82.2395C92.0103 82.2395 91.4291 82.1952 90.9641 82.1066C90.5101 82.0291 90.1503 81.8963 89.8846 81.7081C89.6189 81.5198 89.4196 81.2597 89.2868 80.9275C89.165 80.5954 89.0875 80.1802 89.0543 79.682C89.021 79.1727 89.0044 78.5693 89.0044 77.8718C89.0044 77.1743 89.021 76.5765 89.0543 76.0783C89.0875 75.569 89.165 75.1483 89.2868 74.8162C89.4196 74.484 89.6189 74.2238 89.8846 74.0356C90.1503 73.8474 90.5101 73.7146 90.9641 73.6371C91.4291 73.5485 92.0103 73.5042 92.7078 73.5042C93.4164 73.5042 93.9976 73.5485 94.4515 73.6371C94.9055 73.7146 95.2653 73.8474 95.531 74.0356C95.8078 74.2238 96.0071 74.484 96.1288 74.8162C96.2617 75.1483 96.3447 75.569 96.3779 76.0783C96.4112 76.5765 96.4278 77.1743 96.4278 77.8718C96.4278 78.5693 96.4112 79.1727 96.3779 79.682C96.3447 80.1802 96.2617 80.5954 96.1288 80.9275C96.0071 81.2597 95.8078 81.5198 95.531 81.7081C95.2653 81.8963 94.9055 82.0291 94.4515 82.1066C93.9976 82.1952 93.4164 82.2395 92.7078 82.2395ZM92.7078 81.0936C93.3057 81.0936 93.7651 81.0549 94.0862 80.9774C94.4073 80.8999 94.6342 80.7504 94.7671 80.529C94.911 80.3075 94.994 79.9865 95.0162 79.5658C95.0494 79.134 95.066 78.5693 95.066 77.8718C95.066 77.1743 95.0494 76.6152 95.0162 76.1945C94.994 75.7627 94.911 75.4361 94.7671 75.2147C94.6342 74.9933 94.4073 74.8438 94.0862 74.7663C93.7651 74.6888 93.3057 74.6501 92.7078 74.6501C92.121 74.6501 91.6616 74.6888 91.3294 74.7663C91.0083 74.8438 90.7814 74.9933 90.6485 75.2147C90.5157 75.4361 90.4326 75.7627 90.3994 76.1945C90.3662 76.6152 90.3496 77.1743 90.3496 77.8718C90.3496 78.5693 90.3662 79.134 90.3994 79.5658C90.4326 79.9865 90.5157 80.3075 90.6485 80.529C90.7814 80.7504 91.0083 80.8999 91.3294 80.9774C91.6616 81.0549 92.121 81.0936 92.7078 81.0936ZM102.259 82.1066V69.7676H103.621V82.1066H102.259ZM113.152 82.2395C112.454 82.2395 111.873 82.1952 111.408 82.1066C110.954 82.0291 110.594 81.8963 110.329 81.7081C110.063 81.5198 109.864 81.2597 109.731 80.9275C109.609 80.5954 109.532 80.1802 109.498 79.682C109.465 79.1727 109.449 78.5693 109.449 77.8718C109.449 77.1743 109.465 76.5765 109.498 76.0783C109.532 75.569 109.609 75.1483 109.731 74.8162C109.864 74.484 110.063 74.2238 110.329 74.0356C110.594 73.8474 110.954 73.7146 111.408 73.6371C111.873 73.5485 112.454 73.5042 113.152 73.5042C113.861 73.5042 114.442 73.5485 114.896 73.6371C115.35 73.7146 115.709 73.8474 115.975 74.0356C116.252 74.2238 116.451 74.484 116.573 74.8162C116.706 75.1483 116.789 75.569 116.822 76.0783C116.855 76.5765 116.872 77.1743 116.872 77.8718C116.872 78.5693 116.855 79.1727 116.822 79.682C116.789 80.1802 116.706 80.5954 116.573 80.9275C116.451 81.2597 116.252 81.5198 115.975 81.7081C115.709 81.8963 115.35 82.0291 114.896 82.1066C114.442 82.1952 113.861 82.2395 113.152 82.2395ZM113.152 81.0936C113.75 81.0936 114.209 81.0549 114.53 80.9774C114.851 80.8999 115.078 80.7504 115.211 80.529C115.355 80.3075 115.438 79.9865 115.46 79.5658C115.494 79.134 115.51 78.5693 115.51 77.8718C115.51 77.1743 115.494 76.6152 115.46 76.1945C115.438 75.7627 115.355 75.4361 115.211 75.2147C115.078 74.9933 114.851 74.8438 114.53 74.7663C114.209 74.6888 113.75 74.6501 113.152 74.6501C112.565 74.6501 112.106 74.6888 111.774 74.7663C111.452 74.8438 111.226 74.9933 111.093 75.2147C110.96 75.4361 110.877 75.7627 110.844 76.1945C110.81 76.6152 110.794 77.1743 110.794 77.8718C110.794 78.5693 110.81 79.134 110.844 79.5658C110.877 79.9865 110.96 80.3075 111.093 80.529C111.226 80.7504 111.452 80.8999 111.774 80.9774C112.106 81.0549 112.565 81.0936 113.152 81.0936ZM125.809 85.5277C125.455 85.5277 125.089 85.5166 124.713 85.4945C124.348 85.4834 123.999 85.4668 123.667 85.4446C123.335 85.4225 123.052 85.4004 122.82 85.3782V84.2821C123.085 84.3043 123.379 84.3209 123.7 84.332C124.021 84.3541 124.336 84.3652 124.646 84.3652C124.968 84.3763 125.255 84.3818 125.51 84.3818C126.152 84.3818 126.656 84.3375 127.021 84.2489C127.387 84.1604 127.663 84.0054 127.852 83.7839C128.04 83.5625 128.156 83.2525 128.2 82.8539C128.256 82.4554 128.283 81.9461 128.283 81.3261V80.9774H128.2C128.056 81.2873 127.857 81.5309 127.603 81.7081C127.348 81.8852 127.043 82.0125 126.689 82.09C126.335 82.1564 125.931 82.1897 125.477 82.1897C124.857 82.1897 124.342 82.1232 123.932 81.9904C123.534 81.8575 123.218 81.6361 122.986 81.3261C122.753 81.005 122.587 80.5622 122.488 79.9975C122.399 79.4329 122.355 78.7243 122.355 77.8718C122.355 77.0083 122.405 76.2942 122.504 75.7295C122.604 75.1649 122.77 74.722 123.002 74.401C123.235 74.0799 123.55 73.8529 123.949 73.7201C124.359 73.5762 124.873 73.5042 125.493 73.5042C125.87 73.5042 126.241 73.5374 126.606 73.6038C126.971 73.6592 127.298 73.7865 127.586 73.9858C127.885 74.1851 128.112 74.4729 128.267 74.8494H128.366L128.433 73.6371H129.645V81.0106C129.645 81.8298 129.601 82.5273 129.512 83.103C129.435 83.6788 129.269 84.1438 129.014 84.498C128.759 84.8523 128.377 85.1125 127.868 85.2786C127.359 85.4446 126.673 85.5277 125.809 85.5277ZM126.008 81.0106C126.562 81.0106 126.999 80.9386 127.32 80.7947C127.641 80.6397 127.874 80.4016 128.018 80.0806C128.139 79.8149 128.211 79.4993 128.234 79.134C128.267 78.7686 128.283 78.3424 128.283 77.8552C128.283 77.3902 128.272 76.9806 128.25 76.6263C128.228 76.261 128.156 75.951 128.034 75.6963C127.89 75.342 127.652 75.0874 127.32 74.9324C126.988 74.7774 126.551 74.6999 126.008 74.6999C125.499 74.6999 125.089 74.7387 124.779 74.8162C124.48 74.8826 124.253 75.021 124.098 75.2313C123.943 75.4417 123.838 75.7572 123.783 76.1779C123.728 76.5986 123.7 77.1577 123.7 77.8552C123.7 78.5527 123.728 79.1118 123.783 79.5325C123.838 79.9533 123.943 80.2688 124.098 80.4791C124.253 80.6895 124.48 80.8334 124.779 80.9109C125.089 80.9774 125.499 81.0106 126.008 81.0106ZM135.787 71.2456V69.7676H137.232V71.2456H135.787ZM135.82 82.1066V73.6371H137.182V82.1066H135.82ZM146.813 82.2395C146.126 82.2395 145.551 82.1952 145.086 82.1066C144.632 82.0181 144.266 81.8741 143.989 81.6748C143.713 81.4645 143.502 81.1932 143.358 80.8611C143.214 80.5179 143.12 80.1027 143.076 79.6156C143.032 79.1284 143.01 78.5527 143.01 77.8884C143.01 77.1024 143.043 76.4326 143.109 75.879C143.176 75.3144 143.325 74.8604 143.558 74.5172C143.801 74.1629 144.178 73.9083 144.687 73.7533C145.196 73.5872 145.883 73.5042 146.746 73.5042C147.399 73.5042 147.931 73.554 148.341 73.6537C148.761 73.7533 149.093 73.9083 149.337 74.1187C149.581 74.329 149.758 74.6113 149.868 74.9656C149.99 75.3088 150.068 75.724 150.101 76.2111C150.134 76.6872 150.151 77.2408 150.151 77.8718V78.3202H144.355C144.355 78.8959 144.383 79.3665 144.438 79.7318C144.493 80.0972 144.604 80.3795 144.77 80.5788C144.947 80.7781 145.218 80.9165 145.584 80.994C145.96 81.0715 146.469 81.1102 147.112 81.1102C147.377 81.1102 147.671 81.1047 147.992 81.0936C148.313 81.0715 148.634 81.0438 148.955 81.0106C149.276 80.9774 149.564 80.9441 149.819 80.9109V82.007C149.586 82.0513 149.298 82.09 148.955 82.1232C148.623 82.1564 148.269 82.1841 147.892 82.2063C147.527 82.2284 147.167 82.2395 146.813 82.2395ZM148.839 77.6393V77.191C148.839 76.6152 148.806 76.1613 148.739 75.8292C148.673 75.486 148.556 75.2313 148.39 75.0653C148.235 74.8881 148.019 74.7719 147.743 74.7165C147.466 74.6612 147.123 74.6335 146.713 74.6335C146.182 74.6335 145.761 74.6722 145.451 74.7497C145.141 74.8162 144.908 74.9435 144.753 75.1317C144.598 75.3199 144.493 75.5911 144.438 75.9454C144.383 76.2997 144.355 76.7702 144.355 77.357H149.154L148.839 77.6393ZM158.78 82.2395C158.459 82.2395 158.115 82.2284 157.75 82.2063C157.385 82.1841 157.025 82.1564 156.67 82.1232C156.316 82.1011 155.995 82.0679 155.707 82.0236V80.9275C155.973 80.9497 156.228 80.9718 156.471 80.994C156.726 81.0161 156.975 81.0382 157.219 81.0604C157.462 81.0715 157.706 81.0825 157.949 81.0936C158.193 81.0936 158.442 81.0936 158.697 81.0936C159.272 81.0936 159.687 81.0549 159.942 80.9774C160.208 80.8888 160.379 80.7449 160.457 80.5456C160.545 80.3463 160.59 80.0861 160.59 79.765C160.59 79.3997 160.557 79.134 160.49 78.9679C160.435 78.8018 160.33 78.6967 160.175 78.6524C160.031 78.597 159.809 78.5527 159.51 78.5195L157.318 78.2704C156.798 78.2151 156.405 78.1043 156.139 77.9383C155.873 77.7611 155.691 77.512 155.591 77.191C155.491 76.8699 155.442 76.4658 155.442 75.9786C155.442 75.4251 155.519 74.9822 155.674 74.6501C155.829 74.3179 156.05 74.0688 156.338 73.9028C156.626 73.7367 156.975 73.6315 157.385 73.5872C157.794 73.5319 158.254 73.5042 158.763 73.5042C159.051 73.5042 159.355 73.5153 159.676 73.5374C159.997 73.5596 160.313 73.5872 160.623 73.6204C160.933 73.6537 161.199 73.6924 161.42 73.7367V74.8328C161.132 74.7885 160.839 74.7553 160.54 74.7331C160.252 74.6999 159.953 74.6778 159.643 74.6667C159.344 74.6556 159.04 74.6501 158.73 74.6501C158.309 74.6501 157.949 74.6722 157.65 74.7165C157.351 74.7608 157.124 74.8715 156.969 75.0486C156.825 75.2258 156.754 75.5192 156.754 75.9288C156.754 76.2499 156.776 76.4935 156.82 76.6595C156.875 76.8145 156.98 76.9252 157.135 76.9917C157.29 77.047 157.506 77.0913 157.783 77.1245L160.075 77.3736C160.529 77.4179 160.883 77.5065 161.138 77.6393C161.403 77.7611 161.592 77.9826 161.702 78.3036C161.824 78.6247 161.885 79.1063 161.885 79.7484C161.885 80.2799 161.819 80.7116 161.686 81.0438C161.564 81.3648 161.37 81.614 161.105 81.7911C160.839 81.9682 160.512 82.0845 160.125 82.1398C159.737 82.2063 159.289 82.2395 158.78 82.2395Z" fill="black"/>
</g>
<path d="M9.81185 24.9105C-28.7307 93.1015 78.2856 121.595 145.412 101.877C160.435 97.4644 172.391 85.4924 177.075 70.5525C179.363 63.2537 180.864 54.583 180.864 42.3479" stroke="url(#paint0_linear_18_180)" stroke-width="3.3214"/>
<defs>
<filter id="filter0_i_18_180" x="26.6983" y="69.7676" width="135.187" height="22.4029" filterUnits="userSpaceOnUse" color-interpolation-filters="sRGB">
<feFlood flood-opacity="0" result="BackgroundImageFix"/>
<feBlend mode="normal" in="SourceGraphic" in2="BackgroundImageFix" result="shape"/>
<feColorMatrix in="SourceAlpha" type="matrix" values="0 0 0 0 0 0 0 0 0 0 0 0 0 0 0 0 0 0 127 0" result="hardAlpha"/>
<feOffset dy="6.6428"/>
<feGaussianBlur stdDeviation="3.3214"/>
<feComposite in2="hardAlpha" operator="arithmetic" k2="-1" k3="1"/>
<feColorMatrix type="matrix" values="0 0 0 0 0 0 0 0 0 0 0 0 0 0 0 0 0 0 0.25 0"/>
<feBlend mode="normal" in2="shape" result="effect1_innerShadow_18_180"/>
</filter>
<linearGradient id="paint0_linear_18_180" x1="96" y1="23.2498" x2="96" y2="113.565" gradientUnits="userSpaceOnUse">
<stop stop-color="#FF7043"/>
<stop offset="1" stop-color="#666666"/>
</linearGradient>
</defs>
</svg>
